<svg width="12" height="9" viewBox="0 0 12 9" fill="none"
  xmlns="http://www.w3.org/2000/svg">
  <path d="M7.21457 0.285956C7.08935 0.281961 6.96599 0.316521 6.86184 0.384762C6.75769 0.453002 6.67799 0.551506 6.63394 0.666416C6.5899 0.781326 6.58371 0.906877 6.61626 1.02541C6.64881 1.14394 6.71846 1.2495 6.81541 1.32724L9.78044 3.81459H0.612607C0.532796 3.81288 0.453441 3.82676 0.379196 3.8555C0.304951 3.88423 0.237313 3.92724 0.180251 3.98193C0.123188 4.03662 0.0778499 4.1019 0.046897 4.17399C0.0159442 4.24608 0 4.32347 0 4.40167C0 4.47988 0.0159442 4.55733 0.046897 4.62942C0.0778499 4.70151 0.123188 4.76679 0.180251 4.82148C0.237313 4.87617 0.304951 4.91918 0.379196 4.94791C0.453441 4.97665 0.532796 4.99053 0.612607 4.98882H11.404C11.5259 4.98804 11.6446 4.95092 11.7443 4.88236C11.8441 4.8138 11.9201 4.71709 11.9624 4.60511C12.0046 4.49312 12.0109 4.37115 11.9806 4.25553C11.9503 4.1399 11.8847 4.03607 11.7926 3.95789L7.59852 0.433927C7.49245 0.341631 7.3564 0.289226 7.21457 0.285956Z" />
  <path d="M11.4045 3.81021C11.5264 3.81099 11.6451 3.84811 11.7449 3.91667C11.8446 3.98523 11.9207 4.082 11.9629 4.19399C12.0051 4.30598 12.0115 4.42788 11.9811 4.5435C11.9508 4.65912 11.8852 4.76296 11.7932 4.84114L7.59436 8.3651C7.53448 8.41517 7.46513 8.45316 7.39025 8.47698C7.31538 8.50079 7.23645 8.50993 7.15797 8.50386C7.07949 8.49779 7.003 8.47665 6.93286 8.44163C6.86273 8.4066 6.80032 8.3584 6.74921 8.29975C6.6981 8.24109 6.65928 8.17312 6.63497 8.09977C6.61066 8.02641 6.60134 7.9491 6.60754 7.87222C6.61373 7.79534 6.63533 7.72036 6.67108 7.65165C6.70684 7.58295 6.75606 7.52186 6.81593 7.47178L9.7798 4.98444H0.613132C0.533279 4.98622 0.45387 4.97237 0.379567 4.94367C0.305264 4.91496 0.237566 4.872 0.180449 4.8173C0.123332 4.7626 0.0779486 4.69729 0.0469637 4.62517C0.0159788 4.55305 1.71661e-05 4.47561 1.71661e-05 4.39736C1.71661e-05 4.31911 0.0159788 4.24159 0.0469637 4.16947C0.0779486 4.09735 0.123332 4.03204 0.180449 3.97735C0.237566 3.92265 0.305264 3.87969 0.379567 3.85098C0.45387 3.82227 0.533279 3.80843 0.613132 3.81021H11.4045Z" />
</svg>
