<svg width="24" height="24" viewBox="0 0 24 24" fill="none" xmlns="http://www.w3.org/2000/svg">
<path fill-rule="evenodd" clip-rule="evenodd" d="M20.0048 6.51234C20.2848 6.76739 20.3049 7.2011 20.0499 7.48104L11.7527 16.5877L6.36855 11.1168C6.10291 10.8469 6.10638 10.4127 6.37631 10.1471C6.64623 9.88143 7.08038 9.8849 7.34602 10.1548L11.7143 14.5935L19.0361 6.55739C19.2912 6.27745 19.7249 6.25728 20.0048 6.51234Z" fill="#24FF00"/>
<path fill-rule="evenodd" clip-rule="evenodd" d="M12 1.37143C6.13 1.37143 1.37143 6.13 1.37143 12C1.37143 17.87 6.13 22.6286 12 22.6286C17.87 22.6286 22.6285 17.87 22.6285 12C22.6285 11.6213 22.9356 11.3143 23.3143 11.3143C23.693 11.3143 24 11.6213 24 12C24 18.6274 18.6274 24 12 24C5.37258 24 0 18.6274 0 12C0 5.37258 5.37258 0 12 0C12.3787 0 12.6857 0.307005 12.6857 0.685714C12.6857 1.06442 12.3787 1.37143 12 1.37143Z" fill="#24FF00"/>
</svg>
