<svg width="24" height="24" viewBox="0 0 24 24" fill="none" xmlns="http://www.w3.org/2000/svg">
<path fill-rule="evenodd" clip-rule="evenodd" d="M12 1.37143C6.13 1.37143 1.37143 6.13 1.37143 12C1.37143 17.87 6.13 22.6286 12 22.6286C17.87 22.6286 22.6286 17.87 22.6286 12C22.6286 11.6213 22.9356 11.3143 23.3143 11.3143C23.693 11.3143 24 11.6213 24 12C24 18.6274 18.6274 24 12 24C5.37258 24 0 18.6274 0 12C0 5.37258 5.37258 0 12 0C12.3787 0 12.6857 0.307005 12.6857 0.685714C12.6857 1.06442 12.3787 1.37143 12 1.37143Z" fill="#FF1515"/>
<path fill-rule="evenodd" clip-rule="evenodd" d="M16.3148 6.8679C16.5825 6.60002 17.0167 6.60002 17.2845 6.8679C17.5523 7.13577 17.5523 7.57008 17.2845 7.83796L12.9703 12.1535L16.9423 16.1255C17.2101 16.3933 17.2101 16.8275 16.9423 17.0953C16.6745 17.363 16.2404 17.363 15.9726 17.0953L12.0008 13.1234L8.02737 17.0981C7.75958 17.366 7.32541 17.366 7.05762 17.0981C6.78983 16.8302 6.78983 16.3959 7.05762 16.128L11.0308 12.1535L6.71544 7.83811C6.44766 7.57032 6.44766 7.13615 6.71544 6.86836C6.98323 6.60058 7.4174 6.60058 7.68519 6.86836L12.0004 11.1836L16.3148 6.8679Z" fill="#FF1515"/>
</svg>
