<svg width="16" height="16" viewBox="0 0 16 16" fill="none" xmlns="http://www.w3.org/2000/svg">
<g opacity="0.5">
<path d="M1.70711 0.292893C1.31658 -0.0976317 0.683419 -0.0976317 0.292895 0.292893C-0.0976295 0.683417 -0.0976296 1.31658 0.292895 1.70711L1.70711 0.292893ZM14.2929 15.7071C14.6834 16.0976 15.3166 16.0976 15.7071 15.7071C16.0976 15.3166 16.0976 14.6834 15.7071 14.2929L14.2929 15.7071ZM0.292895 1.70711L14.2929 15.7071L15.7071 14.2929L1.70711 0.292893L0.292895 1.70711Z" fill="white"/>
<path d="M15.7071 1.70711C16.0976 1.31658 16.0976 0.683419 15.7071 0.292894C15.3166 -0.0976295 14.6834 -0.0976296 14.2929 0.292894L15.7071 1.70711ZM0.292894 14.2929C-0.0976295 14.6834 -0.0976296 15.3166 0.292894 15.7071C0.683419 16.0976 1.31658 16.0976 1.70711 15.7071L0.292894 14.2929ZM14.2929 0.292894L0.292894 14.2929L1.70711 15.7071L15.7071 1.70711L14.2929 0.292894Z" fill="white"/>
</g>
</svg>
