<svg width="22" height="22" viewBox="0 0 22 22" fill="none" xmlns="http://www.w3.org/2000/svg">
<path fill-rule="evenodd" clip-rule="evenodd" d="M11 20.625C16.3157 20.625 20.625 16.3157 20.625 11C20.625 5.68426 16.3157 1.375 11 1.375C5.68426 1.375 1.375 5.68426 1.375 11C1.375 16.3157 5.68426 20.625 11 20.625ZM11 21.5C16.799 21.5 21.5 16.799 21.5 11C21.5 5.20101 16.799 0.5 11 0.5C5.20101 0.5 0.5 5.20101 0.5 11C0.5 16.799 5.20101 21.5 11 21.5Z" fill="#24FF00"/>
<path fill-rule="evenodd" clip-rule="evenodd" d="M16.0828 7.63304C16.2919 7.82355 16.3069 8.14751 16.1164 8.35661L9.9188 15.1589L5.89713 11.0723C5.69871 10.8707 5.70131 10.5464 5.90293 10.348C6.10455 10.1496 6.42884 10.1522 6.62726 10.3538L9.89014 13.6693L15.3592 7.66669C15.5497 7.45759 15.8737 7.44252 16.0828 7.63304Z" fill="#24FF00"/>
</svg>
