<svg width="13" height="12" viewBox="0 0 13 12" fill="none" xmlns="http://www.w3.org/2000/svg">
<g opacity="0.8">
<path d="M11.9173 4.23961C11.6708 4.2038 11.4355 4.11285 11.2291 3.97352C11.0226 3.83419 10.8502 3.65007 10.7247 3.43488C10.5993 3.21969 10.524 2.97897 10.5044 2.73065C10.4849 2.48232 10.5217 2.23279 10.6119 2.00063C10.6693 1.84886 10.6778 1.68293 10.6361 1.5261C10.5944 1.36928 10.5047 1.22943 10.3796 1.12616C9.82703 0.662169 9.1981 0.297671 8.52081 0.048915C8.36658 -0.0083763 8.19821 -0.0155344 8.03967 0.0284604C7.88114 0.0724552 7.74053 0.165359 7.63789 0.293936C7.48339 0.491495 7.28593 0.651279 7.06049 0.761169C6.83505 0.871059 6.58754 0.92817 6.33675 0.92817C6.08595 0.92817 5.83844 0.871059 5.613 0.761169C5.38756 0.651279 5.1901 0.491495 5.0356 0.293936C4.93296 0.165359 4.79235 0.0724552 4.63382 0.0284604C4.47528 -0.0155344 4.30691 -0.0083763 4.15268 0.048915C3.52732 0.278576 2.94262 0.606579 2.42064 1.02055C2.28907 1.12471 2.1943 1.26826 2.15021 1.43018C2.10612 1.59209 2.11502 1.76387 2.17562 1.92036C2.2731 2.15866 2.31338 2.41649 2.29322 2.67317C2.27306 2.92984 2.19302 3.17822 2.05953 3.39838C1.92604 3.61854 1.74281 3.80435 1.52454 3.9409C1.30627 4.07745 1.05903 4.16095 0.802662 4.18469C0.636221 4.20249 0.47989 4.27325 0.356688 4.38657C0.233485 4.49989 0.149919 4.64977 0.118295 4.81414C0.0396339 5.20351 9.14197e-06 5.59976 9.14197e-06 5.997C-0.000569019 6.32956 0.0262771 6.6616 0.0802745 6.98975C0.107149 7.1594 0.189159 7.31546 0.313627 7.43382C0.438095 7.55218 0.598087 7.62624 0.768866 7.64455C1.03087 7.66914 1.28317 7.75612 1.50465 7.89823C1.72613 8.04034 1.91035 8.23343 2.04189 8.46135C2.17343 8.68927 2.24846 8.94538 2.2607 9.20825C2.27294 9.47111 2.22204 9.73309 2.11225 9.97224C2.04041 10.1278 2.02259 10.3029 2.06162 10.4698C2.10065 10.6366 2.1943 10.7856 2.3277 10.8932C2.87694 11.3487 3.49982 11.7073 4.16958 11.9535C4.25523 11.9832 4.34509 11.9989 4.43572 12C4.56 11.9997 4.68239 11.9697 4.79265 11.9123C4.9029 11.855 4.99781 11.7721 5.0694 11.6705C5.21997 11.4511 5.4218 11.2718 5.65738 11.1481C5.89296 11.0245 6.15516 10.9601 6.42124 10.9608C6.67904 10.9611 6.9332 11.0216 7.16349 11.1375C7.39378 11.2534 7.59383 11.4214 7.74773 11.6282C7.85009 11.7658 7.99508 11.8657 8.16013 11.9123C8.32517 11.9589 8.501 11.9497 8.66022 11.8859C9.27263 11.6395 9.84278 11.2988 10.35 10.8763C10.4774 10.7709 10.5682 10.6279 10.6091 10.4677C10.6501 10.3076 10.6393 10.1385 10.5781 9.98492C10.4788 9.74969 10.4354 9.49459 10.4516 9.23974C10.4677 8.9849 10.5429 8.7373 10.6711 8.51648C10.7993 8.29566 10.9771 8.10767 11.1905 7.96734C11.4038 7.82702 11.6469 7.73821 11.9004 7.70792C12.0648 7.68518 12.2177 7.6107 12.337 7.49525C12.4562 7.3798 12.5356 7.22938 12.5636 7.06579C12.6315 6.71343 12.6682 6.35579 12.6735 5.997C12.6736 5.61855 12.6382 5.24092 12.5679 4.86906C12.5393 4.70908 12.4611 4.56215 12.3443 4.44916C12.2276 4.33616 12.0781 4.26284 11.9173 4.23961ZM11.7399 6.87569C11.3681 6.93001 11.0133 7.06755 10.702 7.27806C10.3908 7.48858 10.131 7.76663 9.94221 8.0915C9.75338 8.41637 9.64032 8.77968 9.61145 9.15433C9.58258 9.52898 9.63865 9.90532 9.77548 10.2553C9.35657 10.6063 8.88645 10.8913 8.3814 11.1002C8.149 10.7982 7.85012 10.5538 7.50798 10.386C7.16583 10.2183 6.78963 10.1316 6.40856 10.1328C6.01649 10.1349 5.63037 10.2289 5.28116 10.4071C4.93195 10.5854 4.62938 10.843 4.3977 11.1593C3.85064 10.9512 3.34015 10.6575 2.88534 10.2891C3.03944 9.93476 3.10862 9.54933 3.08735 9.16353C3.06608 8.77773 2.95495 8.40223 2.76283 8.067C2.56865 7.72808 2.29792 7.43926 1.97224 7.22362C1.64657 7.00797 1.27498 6.87146 0.887152 6.825C0.853251 6.55037 0.839133 6.27365 0.844907 5.997C0.845015 5.66951 0.876134 5.34276 0.937846 5.02114C1.31613 4.97682 1.67922 4.84639 1.99925 4.63988C2.31927 4.43337 2.58771 4.15626 2.78395 3.82983C2.97992 3.50674 3.09932 3.14306 3.133 2.76668C3.16669 2.3903 3.11376 2.01121 2.97828 1.65845C3.40938 1.32026 3.88942 1.04961 4.40193 0.855793C4.6365 1.14221 4.93174 1.37298 5.26634 1.53143C5.60093 1.68989 5.96653 1.77209 6.33675 1.77209C6.70696 1.77209 7.07256 1.68989 7.40715 1.53143C7.74175 1.37298 8.03699 1.14221 8.27156 0.855793C8.82844 1.0662 9.34661 1.3674 9.80505 1.74716C9.67979 2.09209 9.63197 2.46037 9.66499 2.82585C9.69801 3.19134 9.81106 3.54508 9.99612 3.86198C10.1812 4.17888 10.4337 4.45116 10.7358 4.65952C11.0379 4.86788 11.3821 5.00721 11.7441 5.06761C11.799 5.37438 11.8273 5.68534 11.8286 5.997C11.8274 6.29131 11.8034 6.58509 11.7568 6.87569H11.7399Z" fill="#FBFBFB"/>
<path d="M6.33668 3.46246C5.87522 3.46209 5.42241 3.58771 5.02709 3.82577C4.9753 3.85925 4.93147 3.90367 4.89868 3.95591C4.86589 4.00814 4.84494 4.06692 4.83729 4.12812C4.82964 4.18932 4.83548 4.25144 4.8544 4.31014C4.87333 4.36884 4.90487 4.42268 4.94683 4.46789C5.01346 4.53973 5.10298 4.58618 5.20009 4.59928C5.29719 4.61238 5.39583 4.59132 5.47911 4.53971C5.7572 4.37599 6.07634 4.29533 6.39882 4.30725C6.72129 4.31917 7.03361 4.42317 7.29885 4.60697C7.56409 4.79077 7.77115 5.04667 7.89556 5.34442C8.01997 5.64217 8.05652 5.96931 8.0009 6.28718C7.94527 6.60504 7.79979 6.90033 7.58166 7.13814C7.36353 7.37594 7.08187 7.54632 6.76997 7.62911C6.45808 7.71191 6.129 7.70368 5.82165 7.60537C5.51429 7.50707 5.2415 7.32282 5.03554 7.0744C4.97509 6.99498 4.88847 6.93953 4.79104 6.91788C4.69361 6.89623 4.59166 6.90977 4.50326 6.95611C4.44863 6.98432 4.40083 7.02412 4.36317 7.07271C4.32552 7.12131 4.29892 7.17754 4.28524 7.23748C4.27157 7.29742 4.27114 7.35962 4.28398 7.41974C4.29683 7.47986 4.32264 7.53645 4.35962 7.58556C4.67498 7.97954 5.10075 8.27041 5.58242 8.42093C6.06409 8.57145 6.57973 8.57477 7.0633 8.43046C7.65047 8.25925 8.15594 7.8815 8.48647 7.36688C8.817 6.85225 8.9503 6.23547 8.86179 5.63028C8.77328 5.02509 8.46892 4.47232 8.00485 4.07391C7.54078 3.6755 6.9483 3.45833 6.33668 3.46246Z" fill="#FBFBFB"/>
</g>
</svg>
