<svg width="16" height="15" viewBox="0 0 16 15" fill="none" xmlns="http://www.w3.org/2000/svg">
<path fill-rule="evenodd" clip-rule="evenodd" d="M4.58496 13.1064L6.66515 13.6596V12.9362L6.83496 12.766H8.02364V13.617V14.2128H6.75005L5.1793 13.5319L4.58496 13.1064Z" fill="#CDBDB2"/>
<path fill-rule="evenodd" clip-rule="evenodd" d="M11.3779 13.1064L9.3402 13.6596V12.9362L9.17038 12.766H7.98171V13.617V14.2128H9.25529L10.826 13.5319L11.3779 13.1064Z" fill="#CDBDB2"/>
<path fill-rule="evenodd" clip-rule="evenodd" d="M6.83485 11.5319L6.66504 12.9362L6.8773 12.766H9.08485L9.33957 12.9362L9.16976 11.5319L8.83013 11.3192L7.13202 11.3617L6.83485 11.5319Z" fill="#393939"/>
<path fill-rule="evenodd" clip-rule="evenodd" d="M5.68945 2.04256L6.70832 4.42553L7.1753 11.3617H8.83096L9.3404 4.42553L10.2744 2.04256H5.68945Z" fill="#F89C35"/>
<path fill-rule="evenodd" clip-rule="evenodd" d="M1.23165 7.27658L0.0429688 10.7234L3.01467 10.5532H4.92505V9.06381L4.84014 5.99998L4.41561 6.34041L1.23165 7.27658Z" fill="#F89D35"/>
<path fill-rule="evenodd" clip-rule="evenodd" d="M3.48145 7.65956L6.96258 7.74467L6.5805 9.53191L4.92484 9.10637L3.48145 7.65956Z" fill="#D87C30"/>
<path fill-rule="evenodd" clip-rule="evenodd" d="M3.48145 7.70213L4.92484 9.06384V10.4255L3.48145 7.70213Z" fill="#EA8D3A"/>
<path fill-rule="evenodd" clip-rule="evenodd" d="M4.9248 9.10638L6.62292 9.53192L7.1748 11.3617L6.79273 11.5745L4.9248 10.4681V9.10638Z" fill="#F89D35"/>
<path fill-rule="evenodd" clip-rule="evenodd" d="M4.92458 10.4681L4.58496 13.1064L6.83496 11.5319L4.92458 10.4681Z" fill="#EB8F35"/>
<path fill-rule="evenodd" clip-rule="evenodd" d="M6.96262 7.74466L7.17488 11.3617L6.53809 9.51061L6.96262 7.74466Z" fill="#EA8E3A"/>
<path fill-rule="evenodd" clip-rule="evenodd" d="M2.97266 10.5106L4.92549 10.4681L4.58586 13.1064L2.97266 10.5106Z" fill="#D87C30"/>
<path fill-rule="evenodd" clip-rule="evenodd" d="M0.976931 14.2553L4.58542 13.1064L2.97221 10.5106L0.0429688 10.7234L0.976931 14.2553Z" fill="#EB8F35"/>
<path fill-rule="evenodd" clip-rule="evenodd" d="M6.70786 4.42554L4.88239 5.95745L3.48145 7.65958L6.96258 7.78724L6.70786 4.42554Z" fill="#E8821E"/>
<path fill-rule="evenodd" clip-rule="evenodd" d="M4.58496 13.1064L6.83496 11.5319L6.66515 12.8936V13.6596L5.13685 13.3617L4.58496 13.1064Z" fill="#DFCEC3"/>
<path fill-rule="evenodd" clip-rule="evenodd" d="M11.3779 13.1064L9.17038 11.5319L9.34019 12.8936V13.6596L10.8685 13.3617L11.3779 13.1064Z" fill="#DFCEC3"/>
<path fill-rule="evenodd" clip-rule="evenodd" d="M6.02911 8.51065L6.49609 9.48938L4.84043 9.06384L6.02911 8.51065Z" fill="#393939"/>
<path fill-rule="evenodd" clip-rule="evenodd" d="M0.93457 0.0425568L6.70816 4.42553L5.73174 2.04256L0.93457 0.0425568Z" fill="#E88F35"/>
<path fill-rule="evenodd" clip-rule="evenodd" d="M0.935049 0.0425568L0.170898 2.38298L0.595427 4.93617L0.298257 5.10639L0.722785 5.48936L0.383163 5.78724L0.850144 6.21277L0.552974 6.46809L1.23222 7.31915L4.41618 6.34043C4.41618 6.34043 6.75109 4.46809 6.70863 4.42553C6.66618 4.38298 0.935049 0.0425568 0.935049 0.0425568Z" fill="#8E5A30"/>
<path fill-rule="evenodd" clip-rule="evenodd" d="M14.7312 7.27658L15.9199 10.7234L12.9482 10.5532H11.0378V9.06381L11.1228 5.99998L11.5473 6.34041L14.7312 7.27658Z" fill="#F89D35"/>
<path fill-rule="evenodd" clip-rule="evenodd" d="M12.4814 7.65956L9.00031 7.74467L9.38239 9.53191L11.038 9.10637L12.4814 7.65956Z" fill="#D87C30"/>
<path fill-rule="evenodd" clip-rule="evenodd" d="M12.4814 7.70213L11.038 9.06384V10.4255L12.4814 7.70213Z" fill="#EA8D3A"/>
<path fill-rule="evenodd" clip-rule="evenodd" d="M11.0381 9.10638L9.33998 9.53192L8.78809 11.3617L9.17017 11.5745L11.0381 10.4681V9.10638Z" fill="#F89D35"/>
<path fill-rule="evenodd" clip-rule="evenodd" d="M11.0383 10.4681L11.3779 13.1064L9.17038 11.5745L11.0383 10.4681Z" fill="#EB8F35"/>
<path fill-rule="evenodd" clip-rule="evenodd" d="M9.00027 7.74466L8.78801 11.3617L9.4248 9.51061L9.00027 7.74466Z" fill="#EA8E3A"/>
<path fill-rule="evenodd" clip-rule="evenodd" d="M12.9912 10.5106L11.0384 10.4681L11.378 13.1064L12.9912 10.5106Z" fill="#D87C30"/>
<path fill-rule="evenodd" clip-rule="evenodd" d="M14.986 14.2553L11.3775 13.1064L12.9907 10.5106L15.9199 10.7234L14.986 14.2553Z" fill="#EB8F35"/>
<path fill-rule="evenodd" clip-rule="evenodd" d="M9.25503 4.42554L11.0805 5.95745L12.4814 7.65958L9.00031 7.78724L9.25503 4.42554Z" fill="#E8821E"/>
<path fill-rule="evenodd" clip-rule="evenodd" d="M9.93378 8.51065L9.4668 9.48938L11.1225 9.06384L9.93378 8.51065Z" fill="#393939"/>
<path fill-rule="evenodd" clip-rule="evenodd" d="M15.0283 0.0425568L9.25474 4.42553L10.2312 2.04256L15.0283 0.0425568Z" fill="#E88F35"/>
<path fill-rule="evenodd" clip-rule="evenodd" d="M15.0278 0.0425568L15.792 2.38298L15.3675 4.93617L15.6646 5.10639L15.2401 5.48936L15.5797 5.78724L15.1127 6.21277L15.4099 6.46809L14.7307 7.31915L11.5467 6.34043C11.5467 6.34043 9.2118 4.46809 9.25425 4.42553C9.29671 4.38298 15.0278 0.0425568 15.0278 0.0425568Z" fill="#8E5A30"/>
</svg>
