<svg width="32" height="32" viewBox="0 0 32 32" fill="none" xmlns="http://www.w3.org/2000/svg">
<path fill-rule="evenodd" clip-rule="evenodd" d="M24.3007 11.2085C24.591 11.473 24.6119 11.9228 24.3474 12.2131L15.7429 21.6571L10.1594 15.9835C9.88388 15.7036 9.88748 15.2534 10.1674 14.9779C10.4473 14.7024 10.8976 14.706 11.173 14.9859L15.7031 19.5891L23.2961 11.2553C23.5606 10.965 24.0104 10.944 24.3007 11.2085Z" fill="white"/>
<path fill-rule="evenodd" clip-rule="evenodd" d="M16 30.5778C24.0511 30.5778 30.5778 24.0511 30.5778 16C30.5778 7.94892 24.0511 1.42222 16 1.42222C7.94892 1.42222 1.42222 7.94892 1.42222 16C1.42222 24.0511 7.94892 30.5778 16 30.5778ZM16 32C24.8366 32 32 24.8366 32 16C32 7.16344 24.8366 0 16 0C7.16344 0 0 7.16344 0 16C0 24.8366 7.16344 32 16 32Z" fill="white"/>
<path fill-rule="evenodd" clip-rule="evenodd" d="M16.0001 4.97691C9.9127 4.97691 4.97789 9.91173 4.97789 15.9991C4.97789 22.0865 9.9127 27.0214 16.0001 27.0214C22.0875 27.0214 27.0223 22.0865 27.0223 15.9991C27.0223 15.6064 27.3407 15.288 27.7334 15.288C28.1262 15.288 28.4445 15.6064 28.4445 15.9991C28.4445 22.872 22.873 28.4436 16.0001 28.4436C9.12723 28.4436 3.55566 22.872 3.55566 15.9991C3.55566 9.12625 9.12723 3.55469 16.0001 3.55469C16.3928 3.55469 16.7112 3.87306 16.7112 4.2658C16.7112 4.65853 16.3928 4.97691 16.0001 4.97691Z" fill="white"/>
</svg>
