<svg width="24" height="24" viewBox="0 0 24 24" fill="none" xmlns="http://www.w3.org/2000/svg">
    <path d="M14.0364 0.000564893C13.7927 -0.00668877 13.5527 0.0560679 13.3501 0.179982C13.1475 0.303896 12.9924 0.482765 12.9067 0.691425C12.821 0.900084 12.809 1.12807 12.8723 1.3433C12.9356 1.55854 13.0711 1.75021 13.2598 1.89139L19.0284 6.40805H1.19186C1.03659 6.40494 0.882195 6.43014 0.737747 6.48232C0.5933 6.53451 0.461707 6.6126 0.350688 6.71191C0.239669 6.81122 0.151461 6.92976 0.0912408 7.06066C0.0310204 7.19156 0 7.33209 0 7.4741C0 7.61611 0.0310204 7.75675 0.0912408 7.88765C0.151461 8.01855 0.239669 8.13709 0.350688 8.2364C0.461707 8.33571 0.5933 8.41381 0.737747 8.46599C0.882195 8.51818 1.03659 8.54338 1.19186 8.54027H22.1872C22.4242 8.53885 22.6552 8.47146 22.8493 8.34696C23.0434 8.22246 23.1913 8.04686 23.2735 7.84351C23.3556 7.64016 23.368 7.41868 23.309 7.20872C23.25 6.99877 23.1224 6.81023 22.9432 6.66826L14.7833 0.26926C14.577 0.101663 14.3123 0.00650261 14.0364 0.000564893ZM1.19186 15.4737C0.954787 15.4751 0.723817 15.5425 0.529739 15.667C0.335661 15.7915 0.187695 15.9673 0.105563 16.1706C0.0234316 16.3739 0.0110367 16.5953 0.0700308 16.8053C0.129025 17.0152 0.256605 17.2038 0.435766 17.3457L8.60478 23.7447C8.72126 23.8356 8.8562 23.9046 9.00188 23.9479C9.14755 23.9911 9.30112 24.0077 9.4538 23.9967C9.60649 23.9857 9.7553 23.9473 9.89175 23.8837C10.0282 23.8201 10.1496 23.7326 10.2491 23.6261C10.3485 23.5195 10.424 23.3961 10.4713 23.2629C10.5186 23.1297 10.5367 22.9893 10.5247 22.8497C10.5126 22.7101 10.4706 22.574 10.4011 22.4492C10.3315 22.3244 10.2357 22.2135 10.1192 22.1226L4.35288 17.6059H22.1872C22.3425 17.6092 22.497 17.584 22.6416 17.5319C22.7861 17.4798 22.9178 17.4018 23.029 17.3024C23.1401 17.2031 23.2284 17.0845 23.2887 16.9536C23.3489 16.8226 23.38 16.682 23.38 16.5399C23.38 16.3978 23.3489 16.257 23.2887 16.1261C23.2284 15.9951 23.1401 15.8765 23.029 15.7772C22.9178 15.6779 22.7861 15.5999 22.6416 15.5477C22.497 15.4956 22.3425 15.4705 22.1872 15.4737H1.19186Z" fill="white"/>
</svg>
