<svg width="36" height="36" viewBox="0 0 36 36" fill="none" xmlns="http://www.w3.org/2000/svg">
<path d="M18 36C27.9411 36 36 27.9411 36 18C36 8.05887 27.9411 0 18 0C8.05887 0 0 8.05887 0 18C0 27.9411 8.05887 36 18 36Z" fill="url(#paint0_linear)"/>
<path d="M25.8772 25.1721L19.7906 10.4567C19.4473 9.69584 18.937 9.32471 18.2643 9.32471H17.7262C17.0535 9.32471 16.5432 9.69584 16.1999 10.4567L13.5509 16.868H11.5468C10.9483 16.8726 10.4612 17.3551 10.4566 17.9582V17.9721C10.4612 18.5706 10.9483 19.0577 11.5468 19.0623H12.6231L10.0947 25.1721C10.0483 25.3067 10.0205 25.4458 10.0205 25.5897C10.0205 25.933 10.1272 26.202 10.3174 26.4108C10.5076 26.6196 10.7813 26.7216 11.1246 26.7216C11.352 26.717 11.57 26.6474 11.7509 26.5129C11.9458 26.3783 12.0803 26.1835 12.187 25.9608L14.9705 19.0577H16.9004C17.4989 19.0531 17.986 18.5706 17.9906 17.9675V17.9397C17.986 17.3412 17.4989 16.8541 16.9004 16.8495H15.8705L17.9953 11.5562L23.7849 25.9562C23.8916 26.1788 24.0262 26.3737 24.221 26.5082C24.402 26.6427 24.6246 26.7123 24.8473 26.717C25.1906 26.717 25.4597 26.6149 25.6545 26.4062C25.8494 26.1974 25.9514 25.9283 25.9514 25.585C25.9561 25.4458 25.9329 25.302 25.8772 25.1721Z" fill="white"/>
<defs>
<linearGradient id="paint0_linear" x1="31.4205" y1="6.70762" x2="4.63654" y2="29.2436" gradientUnits="userSpaceOnUse">
<stop stop-color="#B6509E"/>
<stop offset="1" stop-color="#2EBAC6"/>
</linearGradient>
</defs>
</svg>
