<svg width="36" height="36" viewBox="0 0 36 36" fill="none" xmlns="http://www.w3.org/2000/svg">
<path d="M17.9999 35.4193C27.6204 35.4193 35.4193 27.6204 35.4193 17.9999C35.4193 8.37948 27.6204 0.580566 17.9999 0.580566C8.37948 0.580566 0.580566 8.37948 0.580566 17.9999C0.580566 27.6204 8.37948 35.4193 17.9999 35.4193Z" fill="#F2E3EE"/>
<path d="M18 36C27.9411 36 36 27.9411 36 18C36 8.05887 27.9411 0 18 0C8.05887 0 0 8.05887 0 18C0 27.9411 8.05887 36 18 36Z" fill="#D9327C"/>
<path fill-rule="evenodd" clip-rule="evenodd" d="M17.3034 9.49344C17.1582 9.60957 16.9841 9.81279 16.8679 10.1902C16.7518 10.5676 16.1131 12.4257 15.3002 14.7483H20.7292C19.9163 12.4257 19.2776 10.5676 19.1615 10.1902C19.0453 9.81279 18.8711 9.60957 18.726 9.49344C18.5808 9.37731 18.3776 9.29021 18.0002 9.29021C17.6228 9.29021 17.4486 9.37731 17.3034 9.49344ZM9.2905 14.7483H12.9776C13.8776 12.1063 14.6615 9.89989 14.7776 9.49344C15.0099 8.79666 15.3873 8.18699 15.9679 7.7515C16.5486 7.31602 17.2453 7.11279 17.9711 7.11279C18.697 7.11279 19.3937 7.28699 19.9744 7.7515C20.555 8.18699 20.9324 8.79666 21.1647 9.49344C21.3099 9.89989 22.0647 12.0773 22.9647 14.7483H26.7099C27.3195 14.7483 27.8131 15.2418 27.8131 15.8515C27.8131 16.4612 27.3195 16.9547 26.7099 16.9547H23.7776H21.4841H14.5453H12.2518H9.2905C8.68082 16.9547 8.21631 16.4612 8.21631 15.8515C8.21631 15.2418 8.70986 14.7483 9.2905 14.7483ZM9.2905 19.1031C8.68082 19.1031 8.21631 19.5967 8.21631 20.2063C8.21631 20.816 8.70986 21.3096 9.2905 21.3096H10.7421L10.1615 22.9934L9.58083 24.6773L9.34857 25.316C9.14534 25.8967 9.4647 26.5063 10.0163 26.7096C10.597 26.9128 11.2066 26.5934 11.4099 26.0418L11.6421 25.4031L12.2228 23.7192C12.455 23.0225 12.7453 22.2096 13.0647 21.3096H22.9937C23.2841 22.1805 23.5744 23.0225 23.8357 23.7192L24.4163 25.4031L24.6486 26.0418C24.8518 26.6225 25.4615 26.9128 26.0421 26.7096C26.6228 26.5063 26.9131 25.8967 26.7099 25.316L26.4776 24.6773L25.897 22.9934L25.3163 21.3096H26.7679C27.3776 21.3096 27.8711 20.816 27.8711 20.2063C27.8711 19.5967 27.3776 19.1031 26.7679 19.1031H24.5615H22.2679H13.8486H11.555H9.2905ZM25.6357 25.6354L26.6518 25.287C26.6518 25.287 26.6518 25.287 25.6357 25.6354ZM25.6357 25.6354C24.6195 25.9838 24.6195 25.9838 24.6195 25.9838L25.6357 25.6354ZM10.3937 25.6354L11.4099 25.9838C11.4099 25.9838 11.4099 25.9838 10.3937 25.6354ZM10.3937 25.6354C9.3776 25.287 9.3776 25.287 9.3776 25.287L10.3937 25.6354Z" fill="white"/>
</svg>
